#!OML:ASF X:\für Bonn\!DataBase\2005_08_10_Bjorn_Final\c3d\bjorn.ASF
:FULLY-SPECIFIED
:DEGREES
189
root 0.856345 4.58481 9.06723 -2387.9 -14.8046 177.38
lowerback 35.5234 5.26864 4.60364
upperback 27.8594 -3.97606 3.01698
thorax 13.9424 -6.78094 0.446457
lowerneck -2.01052 -4.32362 5.17814
upperneck 15.073 -7.13568 0.690539
head 4.72028 -3.47019 -0.98137
rclavicle -1.07344e-014 6.36111e-015
rhumerus -404.317 -42.6039 294.705
rradius 20.1697
rwrist -16.7113
rhand -13.4531 -1.15442
rfingers 7.12502
rthumb 12.6564 -30.7509
lclavicle -1.07344e-014 6.36111e-015
lhumerus -37.8511 63.612 53.6765
lradius 10.2344
lwrist -49.4138
lhand -20.7943 -5.34951
lfingers 7.12502
lthumb 5.573 744.557
rfemur -283.213 -82.562 177.673
rtibia 150.336
rfoot -19.7075 55.56
rtoes -14.3444
lfemur 94.099 129.427 174.503
ltibia 147.716
lfoot -25.4085 -32.0608
ltoes -27.617
190
root 0.857833 4.58411 9.09991 -2388.75 -14.9878 177.769
lowerback 35.9184 5.37901 4.76457
upperback 27.8025 -3.71741 3.06942
thorax 13.7261 -6.63197 0.405615
lowerneck -1.83592 -4.34888 4.4516
upperneck 15.1743 -7.08385 0.493189
head 4.73619 -3.49235 -0.920012
rclavicle 1.86858e-014 -3.4191e-014
rhumerus -404.939 -42.5781 294.997
rradius 19.9359
rwrist -16.7212
rhand -13.2454 -1.41839
rfingers 7.12502
rthumb 12.8566 -31.0024
lclavicle 1.86858e-014 -3.4191e-014
lhumerus -35.3863 61.784 56.2112
lradius 10.3041
lwrist -47.7031
lhand -21.0634 -4.58457
lfingers 7.12502
lthumb 5.31311 745.329
rfemur -285.905 -88.6157 182.841
rtibia 148.478
rfoot -13.507 53.6423
rtoes -15.2068
lfemur 95.2074 129.481 175.244
ltibia 147.477
lfoot -25.4387 -32.1834
ltoes -27.6073
191
root 0.85875 4.58392 9.13359 -2389.62 -15.1787 178.157
lowerback 36.3868 5.45864 4.90831
upperback 27.7272 -3.50587 3.09998
thorax 13.4631 -6.51206 0.363416
lowerneck -1.63154 -4.34074 3.72271
upperneck 15.2751 -6.99014 0.280418
head 4.74757 -3.49756 -0.860202
rclavicle -4.39314e-014 -3.18055e-015
rhumerus -405.533 -42.5505 295.276
rradius 19.686
rwrist -16.6327
rhand -13.0782 -1.65285
rfingers 7.12502
rthumb 13.0179 -31.2267
lclavicle -4.39314e-014 -3.18055e-015
lhumerus -33.4417 60.1958 58.2093
lradius 10.4344
lwrist -46.4323
lhand -21.2979 -3.5502
lfingers 7.12502
lthumb 5.08667 746.369
rfemur -274.837 -95.2942 174.146
rtibia 146.462
rfoot -7.08923 51.3284
rtoes -15.0713
lfemur 96.3441 129.782 175.972
ltibia 147.222
lfoot -25.3405 -32.244
ltoes -27.4753
192
root 0.858562 4.58357 9.16755 -2390.5 -15.3336 178.523
lowerback 36.9107 5.52712 5.00596
upperback 27.6282 -3.32757 3.13976
thorax 13.1551 -6.42342 0.365539
lowerneck -1.45512 -4.28701 2.90023
upperneck 15.4248 -6.84064 0.0674795
head 4.78256 -3.48223 -0.784954
rclavicle -1.15295e-014 -2.62396e-014
rhumerus -406.003 -42.3126 295.446
rradius 19.5208
rwrist -16.7171
rhand -12.917 -1.97568
rfingers 7.12502
rthumb 13.1732 -31.5395
lclavicle -1.15295e-014 -2.62396e-014
lhumerus -31.7062 58.5726 60.0251
lradius 10.5387
lwrist -45.1888
lhand -21.3993 -2.27874
lfingers 7.12502
lthumb 4.9888 747.643
rfemur -273.502 -102.18 175.024
rtibia 144.317
rfoot -1.0989 48.7903
rtoes -14.1065
lfemur 97.536 130.118 176.748
ltibia 146.961
lfoot -25.1571 -32.3774
ltoes -27.2595
193
root 0.857953 4.58317 9.20183 -2391.37 -15.4598 178.888
lowerback 37.4447 5.58153 5.11898
upperback 27.5254 -3.16897 3.18033
thorax 12.8451 -6.34507 0.363
lowerneck -1.47833 -4.20046 2.03481
upperneck 15.7729 -6.67334 -0.114757
head 4.91496 -3.46005 -0.702678
rclavicle 2.56432e-014 -2.06736e-014
rhumerus -406.504 -42.237 295.72
rradius 19.3486
rwrist -16.5809
rhand -12.782 -2.29099
rfingers 7.12502
rthumb 13.3033 -31.8464
lclavicle 2.56432e-014 -2.06736e-014
lhumerus -30.3105 57.0792 61.4413
lradius 10.6097
lwrist -44.2713
lhand -21.3416 -0.872708
lfingers 7.12502
lthumb 5.04452 749.047
rfemur -271.547 -109.047 175.132
rtibia 142.062
rfoot 4.3214 46.1387
rtoes -12.9107
lfemur 98.6835 130.541 177.512
ltibia 146.698
lfoot -24.8996 -32.5396
ltoes -27.0703
194
root 0.856469 4.58307 9.2359 -2392.24 -15.5872 179.256
lowerback 37.9857 5.62886 5.20458
upperback 27.4376 -3.05227 3.25494
thorax 12.5599 -6.30623 0.415507
lowerneck -1.6737 -4.08873 1.18876
upperneck 16.208 -6.45989 -0.404959
head 5.09919 -3.42262 -0.660507
rclavicle -4.96962e-015 -1.70955e-014
rhumerus -406.872 -42.1691 295.99
rradius 19.1734
rwrist -16.3893
rhand -12.6611 -2.63081
rfingers 7.12502
rthumb 13.4198 -32.1785
lclavicle -4.96962e-015 -1.70955e-014
lhumerus -29.2507 55.8636 62.485
lradius 10.6076
lwrist -43.6711
lhand -21.1843 0.398512
lfingers 7.12502
lthumb 5.1964 750.315
rfemur -269.511 -115.537 175.029
rtibia 139.749
rfoot 8.51078 43.4448
rtoes -12.4692
lfemur 99.8315 131.121 178.243
ltibia 146.428
lfoot -24.605 -32.6544
ltoes -26.932
195
root 0.853291 4.58555 9.27288 -2393.08 -15.6768 179.617
lowerback 38.522 5.65307 5.31606
upperback 27.3326 -2.95017 3.32097
thorax 12.2596 -6.26692 0.449409
lowerneck -1.86983 -3.95654 0.474975
upperneck 16.6006 -6.20249 -0.799391
head 5.26342 -3.36733 -0.667956
rclavicle 1.0635e-014 4.81059e-014
rhumerus -407.316 -42.2644 296.421
rradius 18.9832
rwrist -16.0483
rhand -12.5098 -2.94165
rfingers 7.12502
rthumb 13.5657 -32.4797
lclavicle 1.0635e-014 4.81059e-014
lhumerus -28.4981 54.7444 63.2131
lradius 10.5703
lwrist -43.2391
lhand -21.0297 1.34216
lfingers 7.12502
lthumb 5.34563 751.255
rfemur -267.59 -121.662 174.967
rtibia 137.403
rfoot 11.4386 40.6443
rtoes -12.2762
lfemur 100.904 131.792 178.895
ltibia 146.143
lfoot -24.208 -32.7239
ltoes -26.7341
196
root 0.850046 4.58946 9.31151 -2393.92 -15.7423 179.958
lowerback 39.082 5.6726 5.42418
upperback 27.2206 -2.85959 3.39231
thorax 11.9481 -6.23802 0.493836
lowerneck -2.1908 -3.81801 -0.123697
upperneck 17.081 -5.92762 -1.30129
head 5.47016 -3.30956 -0.731229
rclavicle 1.88845e-015 -7.15625e-015
rhumerus -407.764 -42.3999 296.91
rradius 18.794
rwrist -15.6355
rhand -12.4132 -3.24923
rfingers 7.12502
rthumb 13.6588 -32.7811
lclavicle 1.88845e-015 -7.15625e-015
lhumerus -27.6253 53.0676 64.2211
lradius 10.5999
lwrist -42.1452
lhand -20.7991 2.28617
lfingers 7.12502
lthumb 5.56836 752.193
rfemur -265.723 -127.229 174.911
rtibia 135.063
rfoot 13.3612 37.8966
rtoes -12.2417
lfemur 102.006 132.547 179.525
ltibia 145.834
lfoot -23.7896 -32.763
ltoes -26.5616
197
root 0.846311 4.59418 9.34955 -2394.73 -15.7929 180.259
lowerback 39.6366 5.69082 5.53536
upperback 27.1016 -2.76381 3.44703
thorax 11.6332 -6.20167 0.517234
lowerneck -2.50005 -3.69646 -0.700162
upperneck 17.5047 -5.67227 -1.7601
head 5.6593 -3.26154 -0.784001
rclavicle 1.08338e-014 3.73715e-014
rhumerus -408.166 -42.4938 297.326
rradius 18.6299
rwrist -15.3366
rhand -12.3461 -3.58376
rfingers 7.12502
rthumb 13.7235 -33.1112
lclavicle 1.08338e-014 3.73715e-014
lhumerus -26.8642 51.2758 65.1718
lradius 10.6635
lwrist -40.8517
lhand -20.5215 3.15097
lfingers 7.12502
lthumb 5.83631 753.051
rfemur -264.021 -132.073 174.917
rtibia 132.801
rfoot 14.4219 35.4412
rtoes -12.4555
lfemur 103.065 133.264 180.106
ltibia 145.532
lfoot -23.2962 -32.8488
ltoes -26.3377
198
root 0.842916 4.60105 9.38709 -2395.5 -15.8448 180.574
lowerback 40.1569 5.69129 5.65925
upperback 26.9862 -2.68693 3.50581
thorax 11.3391 -6.17205 0.539715
lowerneck -2.81715 -3.57019 -1.20454
upperneck 17.9252 -5.40276 -2.26626
head 5.84678 -3.21105 -0.862549
rclavicle -2.5842e-015 -2.94201e-014
rhumerus -408.573 -42.6716 297.803
rradius 18.4747
rwrist -15.0294
rhand -12.3215 -3.91783
rfingers 7.12502
rthumb 13.7472 -33.4437
lclavicle -2.5842e-015 -2.94201e-014
lhumerus -26.0692 49.1414 66.25
lradius 10.7522
lwrist -39.0758
lhand -20.3642 4.01878
lfingers 7.12502
lthumb 5.98825 753.914
rfemur -262.46 -136.161 175.01
rtibia 130.669
rfoot 14.808 33.2605
rtoes -12.9605
lfemur 104.072 134.043 180.641
ltibia 145.218
lfoot -22.8099 -32.9269
ltoes -26.1152
199
root 0.840459 4.61063 9.42439 -2396.23 -15.9105 180.876
lowerback 40.6542 5.67533 5.76912
upperback 26.8674 -2.63079 3.54922
thorax 11.0504 -6.15054 0.55658
lowerneck -3.13879 -3.42308 -1.71649
upperneck 18.3515 -5.10983 -2.69973
head 6.04085 -3.15014 -0.916044
rclavicle -1.3418e-015 1.35174e-014
rhumerus -408.894 -42.7569 298.152
rradius 18.3486
rwrist -14.8773
rhand -12.3321 -4.20897
rfingers 7.12502
rthumb 13.7369 -33.7355
lclavicle -1.3418e-015 1.35174e-014
lhumerus -25.3455 46.7965 67.3297
lradius 10.8715
lwrist -36.9328
lhand -20.2964 4.7751
lfingers 7.12502
lthumb 6.05362 754.669
rfemur -260.998 -139.622 175.145
rtibia 128.645
rfoot 14.6966 31.308
rtoes -13.3744
lfemur 105 134.915 181.066
ltibia 144.897
lfoot -22.2974 -32.9468
ltoes -25.9206
200
root 0.838133 4.62277 9.46145 -2396.91 -16.0261 181.161
lowerback 41.0898 5.65489 5.83251
upperback 26.7715 -2.60297 3.58774
thorax 10.8098 -6.14925 0.592356
lowerneck -3.51298 -3.28135 -2.25978
upperneck 18.7557 -4.8171 -3.07603
head 6.24095 -3.09007 -0.946956
rclavicle 1.77912e-014 2.29596e-014
rhumerus -409.132 -42.8604 298.452
rradius 18.228
rwrist -14.7665
rhand -12.3983 -4.52737
rfingers 7.12502
rthumb 13.6731 -34.0582
lclavicle 1.77912e-014 2.29596e-014
lhumerus -24.771 44.69 68.259
lradius 10.9921
lwrist -34.9271
lhand -20.3425 5.47944
lfingers 7.12502
lthumb 6.00911 755.374
rfemur -259.58 -142.558 175.223
rtibia 126.708
rfoot 14.3008 29.5642
rtoes -13.2047
lfemur 105.867 135.89 181.348
ltibia 144.561
lfoot -21.7438 -32.9139
ltoes -25.6811
201
root 0.836195 4.63617 9.49788 -2397.55 -16.1353 181.445
lowerback 41.5042 5.61501 5.91496
upperback 26.6666 -2.58406 3.61075
thorax 10.5667 -6.14304 0.604205
lowerneck -3.8869 -3.15222 -2.77327
upperneck 19.1386 -4.5395 -3.42726
head 6.4353 -3.03684 -0.97492
rclavicle -1.11319e-014 4.01545e-014
rhumerus -409.389 -42.9482 298.725
rradius 18.1407
rwrist -14.7365
rhand -12.5267 -4.80436
rfingers 7.12502
rthumb 13.5494 -34.3435
lclavicle -1.11319e-014 4.01545e-014
lhumerus -24.3718 42.8025 68.9958
lradius 11.1159
lwrist -33.1526
lhand -20.417 6.06487
lfingers 7.12502
lthumb 5.9372 755.962
rfemur -258.228 -145.083 175.326
rtibia 124.883
rfoot 13.5256 27.9669
rtoes -13.4814
lfemur 106.658 136.905 181.582
ltibia 144.227
lfoot -21.1254 -32.9089
ltoes -25.3587
